<mxfile host="app.diagrams.net" modified="2023-01-16T03:15:08.444Z" agent="5.0 (Windows)" version="20.8.5" etag="H7IZd3v8YxSE0SPOgzKF" type="github">
  <diagram id="tAyRt19rHpK1ADUffQ4e" name="Page-1">
    <mxGraphModel dx="2963" dy="1173" grid="1" gridSize="10" guides="1" tooltips="1" connect="1" arrows="1" fold="1" page="1" pageScale="1" pageWidth="850" pageHeight="1100" math="0" shadow="0">
      <root>
        <mxCell id="0" />
        <mxCell id="1" parent="0" />
        <mxCell id="XO3ogCorA4O32S0K_52N-15" value="" style="swimlane;startSize=0;" vertex="1" parent="1">
          <mxGeometry x="480" y="350" width="290" height="280" as="geometry">
            <mxRectangle x="35" y="40" width="50" height="40" as="alternateBounds" />
          </mxGeometry>
        </mxCell>
        <mxCell id="XO3ogCorA4O32S0K_52N-14" value="&lt;h1&gt;Rusle2 Simulation Service&lt;br&gt;&lt;/h1&gt;&lt;p&gt;Raster and vector layer processing service for Rusle2 inputs and outputs.&lt;/p&gt;&lt;ul&gt;&lt;li&gt;FastAPI&lt;/li&gt;&lt;li&gt;GeoPandas&lt;/li&gt;&lt;li&gt;RasterIO&lt;/li&gt;&lt;li&gt;GDAL&lt;/li&gt;&lt;li&gt;Libraster&lt;br&gt;&lt;/li&gt;&lt;/ul&gt;" style="text;html=1;strokeColor=none;fillColor=none;spacing=5;spacingTop=-20;whiteSpace=wrap;overflow=hidden;rounded=0;" vertex="1" parent="XO3ogCorA4O32S0K_52N-15">
          <mxGeometry width="190" height="280" as="geometry" />
        </mxCell>
        <mxCell id="XO3ogCorA4O32S0K_52N-17" value="&lt;div&gt;PostgreSQL&lt;/div&gt;&lt;div&gt;(PostGIS)&lt;br&gt;&lt;/div&gt;" style="shape=cylinder3;whiteSpace=wrap;html=1;boundedLbl=1;backgroundOutline=1;size=15;" vertex="1" parent="XO3ogCorA4O32S0K_52N-15">
          <mxGeometry x="190" y="80" width="90" height="120" as="geometry" />
        </mxCell>
        <mxCell id="XO3ogCorA4O32S0K_52N-18" value="" style="swimlane;startSize=0;" vertex="1" parent="1">
          <mxGeometry x="480" y="40" width="290" height="280" as="geometry">
            <mxRectangle x="35" y="40" width="50" height="40" as="alternateBounds" />
          </mxGeometry>
        </mxCell>
        <mxCell id="XO3ogCorA4O32S0K_52N-19" value="&lt;h1&gt;Geo-spatial Processing Service&lt;br&gt;&lt;/h1&gt;&lt;p&gt;Raster and vector layer processing service for Rusle2 inputs and outputs.&lt;/p&gt;&lt;ul&gt;&lt;li&gt;FastAPI&lt;/li&gt;&lt;li&gt;GeoPandas&lt;/li&gt;&lt;li&gt;RasterIO&lt;/li&gt;&lt;li&gt;GDAL&lt;/li&gt;&lt;li&gt;Libraster&lt;br&gt;&lt;/li&gt;&lt;/ul&gt;" style="text;html=1;strokeColor=none;fillColor=none;spacing=5;spacingTop=-20;whiteSpace=wrap;overflow=hidden;rounded=0;" vertex="1" parent="XO3ogCorA4O32S0K_52N-18">
          <mxGeometry width="190" height="280" as="geometry" />
        </mxCell>
        <mxCell id="XO3ogCorA4O32S0K_52N-20" value="&lt;div&gt;PostgreSQL&lt;/div&gt;&lt;div&gt;(PostGIS)&lt;br&gt;&lt;/div&gt;" style="shape=cylinder3;whiteSpace=wrap;html=1;boundedLbl=1;backgroundOutline=1;size=15;" vertex="1" parent="XO3ogCorA4O32S0K_52N-18">
          <mxGeometry x="190" y="10" width="90" height="120" as="geometry" />
        </mxCell>
        <mxCell id="XO3ogCorA4O32S0K_52N-24" value="&lt;div&gt;S3&lt;/div&gt;&lt;div&gt;Bulk Raster Storage&lt;br&gt;&lt;/div&gt;" style="shape=cylinder3;whiteSpace=wrap;html=1;boundedLbl=1;backgroundOutline=1;size=15;" vertex="1" parent="XO3ogCorA4O32S0K_52N-18">
          <mxGeometry x="190" y="150" width="90" height="120" as="geometry" />
        </mxCell>
        <mxCell id="XO3ogCorA4O32S0K_52N-21" value="" style="swimlane;startSize=0;" vertex="1" parent="1">
          <mxGeometry x="480" y="650" width="290" height="280" as="geometry">
            <mxRectangle x="35" y="40" width="50" height="40" as="alternateBounds" />
          </mxGeometry>
        </mxCell>
        <mxCell id="XO3ogCorA4O32S0K_52N-22" value="&lt;h1&gt;Rusler Simulation Service&lt;br&gt;&lt;/h1&gt;&lt;p&gt;Raster and vector layer processing service for Rusle2 inputs and outputs.&lt;/p&gt;&lt;ul&gt;&lt;li&gt;FastAPI&lt;/li&gt;&lt;li&gt;GeoPandas&lt;/li&gt;&lt;li&gt;RasterIO&lt;/li&gt;&lt;li&gt;GDAL&lt;/li&gt;&lt;li&gt;Libraster&lt;br&gt;&lt;/li&gt;&lt;/ul&gt;" style="text;html=1;strokeColor=none;fillColor=none;spacing=5;spacingTop=-20;whiteSpace=wrap;overflow=hidden;rounded=0;" vertex="1" parent="XO3ogCorA4O32S0K_52N-21">
          <mxGeometry width="190" height="280" as="geometry" />
        </mxCell>
        <mxCell id="XO3ogCorA4O32S0K_52N-23" value="&lt;div&gt;PostgreSQL&lt;/div&gt;&lt;div&gt;(PostGIS)&lt;br&gt;&lt;/div&gt;" style="shape=cylinder3;whiteSpace=wrap;html=1;boundedLbl=1;backgroundOutline=1;size=15;" vertex="1" parent="XO3ogCorA4O32S0K_52N-21">
          <mxGeometry x="190" y="80" width="90" height="120" as="geometry" />
        </mxCell>
        <mxCell id="XO3ogCorA4O32S0K_52N-25" value="&lt;h1&gt;Frontend&lt;/h1&gt;" style="text;html=1;strokeColor=none;fillColor=none;spacing=5;spacingTop=-20;whiteSpace=wrap;overflow=hidden;rounded=0;" vertex="1" parent="1">
          <mxGeometry x="40" y="60" width="190" height="120" as="geometry" />
        </mxCell>
        <mxCell id="XO3ogCorA4O32S0K_52N-26" value="" style="swimlane;startSize=0;" vertex="1" parent="1">
          <mxGeometry x="40" y="40" width="390" height="560" as="geometry" />
        </mxCell>
        <mxCell id="XO3ogCorA4O32S0K_52N-8" value="&lt;h1&gt;Map Interface&lt;br&gt;&lt;/h1&gt;&lt;p&gt;Frontend interface targeting user configuration details for defining and launching Rusle2 simulation units.&lt;/p&gt;&lt;ul&gt;&lt;li&gt;React&lt;/li&gt;&lt;li&gt;Leaflet&lt;/li&gt;&lt;/ul&gt;" style="text;html=1;strokeColor=none;fillColor=none;spacing=5;spacingTop=-20;whiteSpace=wrap;overflow=hidden;rounded=0;" vertex="1" parent="XO3ogCorA4O32S0K_52N-26">
          <mxGeometry x="35" y="80" width="190" height="190" as="geometry" />
        </mxCell>
        <mxCell id="XO3ogCorA4O32S0K_52N-10" value="" style="swimlane;startSize=0;" vertex="1" parent="XO3ogCorA4O32S0K_52N-26">
          <mxGeometry x="30" y="80" width="325" height="200" as="geometry">
            <mxRectangle x="35" y="40" width="50" height="40" as="alternateBounds" />
          </mxGeometry>
        </mxCell>
        <mxCell id="XO3ogCorA4O32S0K_52N-9" value="Placeholder Figma design perview" style="rounded=1;whiteSpace=wrap;html=1;" vertex="1" parent="XO3ogCorA4O32S0K_52N-10">
          <mxGeometry x="195" y="20" width="120" height="160" as="geometry" />
        </mxCell>
        <mxCell id="XO3ogCorA4O32S0K_52N-11" value="&lt;h1&gt;Dashboard&lt;br&gt;&lt;/h1&gt;&lt;p&gt;Frontend Interface targeting result reporting for finished Rusle2 simulation units&lt;br&gt;&lt;/p&gt;&lt;ul&gt;&lt;li&gt;React&lt;/li&gt;&lt;li&gt;Plotly&lt;br&gt;&lt;/li&gt;&lt;/ul&gt;" style="text;html=1;strokeColor=none;fillColor=none;spacing=5;spacingTop=-20;whiteSpace=wrap;overflow=hidden;rounded=0;" vertex="1" parent="XO3ogCorA4O32S0K_52N-26">
          <mxGeometry x="37.5" y="320" width="190" height="190" as="geometry" />
        </mxCell>
        <mxCell id="XO3ogCorA4O32S0K_52N-12" value="" style="swimlane;startSize=0;" vertex="1" parent="XO3ogCorA4O32S0K_52N-26">
          <mxGeometry x="32.5" y="320" width="325" height="200" as="geometry">
            <mxRectangle x="35" y="40" width="50" height="40" as="alternateBounds" />
          </mxGeometry>
        </mxCell>
        <mxCell id="XO3ogCorA4O32S0K_52N-13" value="Placeholder Figma design perview" style="rounded=1;whiteSpace=wrap;html=1;" vertex="1" parent="XO3ogCorA4O32S0K_52N-12">
          <mxGeometry x="195" y="20" width="120" height="160" as="geometry" />
        </mxCell>
        <mxCell id="XO3ogCorA4O32S0K_52N-27" value="" style="swimlane;startSize=0;" vertex="1" parent="1">
          <mxGeometry x="820" y="40" width="290" height="280" as="geometry">
            <mxRectangle x="35" y="40" width="50" height="40" as="alternateBounds" />
          </mxGeometry>
        </mxCell>
        <mxCell id="XO3ogCorA4O32S0K_52N-28" value="&lt;h1&gt;Report Generation Service&lt;br&gt;&lt;/h1&gt;&lt;p&gt;Raster and vector layer processing service for Rusle2 inputs and outputs.&lt;/p&gt;&lt;ul&gt;&lt;li&gt;FastAPI&lt;/li&gt;&lt;li&gt;GeoPandas&lt;/li&gt;&lt;li&gt;RasterIO&lt;/li&gt;&lt;li&gt;GDAL&lt;/li&gt;&lt;li&gt;Libraster&lt;br&gt;&lt;/li&gt;&lt;/ul&gt;" style="text;html=1;strokeColor=none;fillColor=none;spacing=5;spacingTop=-20;whiteSpace=wrap;overflow=hidden;rounded=0;" vertex="1" parent="XO3ogCorA4O32S0K_52N-27">
          <mxGeometry width="190" height="280" as="geometry" />
        </mxCell>
        <mxCell id="XO3ogCorA4O32S0K_52N-29" value="&lt;div&gt;PostgreSQL&lt;/div&gt;&lt;div&gt;(PostGIS)&lt;br&gt;&lt;/div&gt;" style="shape=cylinder3;whiteSpace=wrap;html=1;boundedLbl=1;backgroundOutline=1;size=15;" vertex="1" parent="XO3ogCorA4O32S0K_52N-27">
          <mxGeometry x="190" y="80" width="90" height="120" as="geometry" />
        </mxCell>
      </root>
    </mxGraphModel>
  </diagram>
</mxfile>
